<?xml version="1.0" encoding="utf-8"?>
<!-- Generator: Adobe Illustrator 18.1.1, SVG Export Plug-In . SVG Version: 6.00 Build 0)  -->
<svg version="1.1" id="Capa_1" xmlns="http://www.w3.org/2000/svg" xmlns:xlink="http://www.w3.org/1999/xlink" x="0px" y="0px"
	 viewBox="0 180 612 612" enable-background="new 0 180 612 612" xml:space="preserve">
<g>
	<path fill="#907A7B" d="M253.4,401.8h-5c-4.9,0-8.9,4-8.9,9v91.5c0,4.9,4,9,8.9,9h5c4.9,0,9-4,9-9v-91.5
		C262.4,405.8,258.4,401.8,253.4,401.8z"/>
	<path fill="#907A7B" d="M357.5,401.8c-3.2,0-6,1.3-8.1,3.4s-3.4,4.9-3.4,8.1v52.8c0,0-45.8-59.7-46.5-60.5c-2.2-2.5-5.4-4-9-3.8
		c-6.2,0.2-11,5.7-11,11.9v86c0,6.3,5.1,11.5,11.5,11.5c3.2,0,6-1.3,8.1-3.4s3.4-4.9,3.4-8.1v-52.5c0,0,46.5,60.2,47.1,60.8
		c2,1.9,4.8,3.1,7.7,3.1c6.4,0.1,11.6-5.6,11.6-11.9v-86C368.9,406.9,363.8,401.8,357.5,401.8z"/>
	<path fill="#907A7B" d="M217.1,488.3h-34.4v-75c0-6.3-5.1-11.5-11.5-11.5c-3.2,0-6,1.3-8.1,3.4s-3.4,4.9-3.4,8.1v86.5
		c0,6.3,5.1,11.5,11.5,11.5H217c6.3,0,11.5-5.1,11.5-11.5c0-3.2-1.3-6-3.4-8.1S220.3,488.3,217.1,488.3z"/>
	<path fill="#907A7B" d="M443.4,424.7c6.3,0,11.5-5.1,11.5-11.5s-5.1-11.5-11.5-11.5h-45.8c-6.3,0-11.5,5.1-11.5,11.5v86.5
		c0,6.3,5.1,11.5,11.5,11.5h45.8c6.3,0,11.5-5.1,11.5-11.5c0-3.2-1.3-6-3.4-8.1s-4.9-3.4-8.1-3.4H409V468h34.4
		c6.3,0,11.5-5.1,11.5-11.5c0-3.2-1.3-6-3.4-8.1s-4.9-3.4-8.1-3.4H409v-20.3H443.4z"/>
	<path fill="#907A7B" d="M480.5,180h-349C59.2,180,0,239.2,0,311.5v349C0,732.8,59.2,792,131.5,792h349
		c72.3,0,131.5-59.2,131.5-131.5v-349C612,239.2,552.8,180,480.5,180z M529.9,461.4c-0.2,3.6-0.7,8.1-1.8,13.5
		c-2.8,17.3-8.6,33.7-17.1,49.1c-4,7.2-23.6,34.8-29.7,42c-33.1,39.9-88.6,85.9-181.3,130.7c-8.7,4.2-18.5-2.8-17.5-12.3l4.7-42.1
		c0.8-6.7-4.1-12.8-10.8-13.5C166.7,617.4,82,542.7,82,452.2C82,353.8,182.3,274,306,274c120.2,0,218.3,75.3,223.8,169.9
		C529.8,446.7,530.3,455.4,529.9,461.4z"/>
</g>
</svg>
