<?xml version="1.0" encoding="utf-8"?>
<!-- Generator: Adobe Illustrator 18.1.1, SVG Export Plug-In . SVG Version: 6.00 Build 0)  -->
<svg version="1.1" id="Capa_1" xmlns="http://www.w3.org/2000/svg" xmlns:xlink="http://www.w3.org/1999/xlink" x="0px" y="0px"
	 viewBox="0 180 612 612" enable-background="new 0 180 612 612" xml:space="preserve">
<path fill="#907A7B" d="M612,486c0-169-137-306-306-306S0,317,0,486s137,306,306,306c1.8,0,3.6,0,5.4-0.1V553.8h-65.7v-76.6h65.7
	v-56.4c0-65.4,39.9-101,98.3-101c28,0,52,2,58.9,3v68.4h-40.2c-31.7,0-37.9,15.1-37.9,37.2V477h75.9l-9.9,76.6h-66v226.5
	C518.4,743.5,612,625.7,612,486z"/>
</svg>
