<?xml version="1.0" encoding="utf-8"?>
<!-- Generator: Adobe Illustrator 18.1.1, SVG Export Plug-In . SVG Version: 6.00 Build 0)  -->
<svg version="1.1" id="圖層_1" xmlns="http://www.w3.org/2000/svg" xmlns:xlink="http://www.w3.org/1999/xlink" x="0px" y="0px"
	 viewBox="0 180.1 612 611.9" enable-background="new 0 180.1 612 611.9" xml:space="preserve">
<path fill="#907A7B" d="M312.1,792c-2,0-4.1,0-6.1,0c-47.9,0.1-92.3-1.1-135.4-3.7c-39.6-2.4-75.5-16-104.4-39.4
	C38.5,726.2,19.6,695.6,9.9,658c-8.4-32.8-8.8-65-9.2-96.1c-0.4-22.4-0.6-48.8-0.7-75.8c0.1-27,0.4-53.5,0.7-75.9
	c0.5-31.1,0.8-63.4,9.2-96.1c9.6-37.7,28.6-68.3,56.3-90.8c28.7-23.4,64.8-37.1,104.4-39.4c43.2-2.6,87.5-3.8,135.5-3.7
	c47.9-0.1,92.3,1.1,135.4,3.7c39.6,2.4,75.5,16,104.4,39.4c27.7,22.6,46.6,53.2,56.3,90.8c8.4,32.8,8.8,65,9.2,96.1
	c0.4,22.4,0.6,48.8,0.7,75.8v0.1c-0.1,26.9-0.4,53.4-0.7,75.8c-0.5,31.1-0.8,63.4-9.2,96.1c-9.6,37.7-28.6,68.3-56.3,90.8
	c-28.7,23.4-64.8,37.1-104.4,39.4C400.3,790.8,357.9,792,312.1,792z M306,744.2c47.2,0.1,90.5-1.1,132.6-3.6
	c29.9-1.8,55.8-11.5,77-28.8c19.6-16,33.1-38.1,40.2-65.6c6.9-27.3,7.4-56.7,7.8-85c0.4-22.2,0.6-48.5,0.7-75.2
	c-0.1-26.7-0.4-53-0.7-75.2c-0.4-28.3-0.8-57.6-7.8-85c-7.1-27.5-20.6-49.6-40.2-65.6c-21.3-17.3-47.1-27-77-28.8
	c-42.1-2.5-85.5-3.7-132.6-3.6c-47.2-0.1-90.5,1.1-132.6,3.6c-29.9,1.8-55.8,11.5-77,28.8c-19.6,16-33.1,38.1-40,65.7
	c-6.9,27.3-7.4,56.7-7.8,85c-0.4,22.1-0.6,48.4-0.7,75.1c0.1,26.5,0.4,52.8,0.7,75.1c0.4,28.3,0.8,57.6,7.8,85
	c7.1,27.5,20.6,49.6,40.2,65.6c21.3,17.3,47.1,27,77,28.8C215.6,743.1,259,744.3,306,744.2z M304.9,635.4
	c-82.4,0-149.4-67.1-149.4-149.4s67.1-149.4,149.4-149.4S454.3,403.6,454.3,486S387.3,635.4,304.9,635.4z M304.9,384.4
	c-56.1,0-101.6,45.5-101.6,101.6s45.5,101.6,101.6,101.6S406.5,542.1,406.5,486S361,384.4,304.9,384.4z M471.1,288.8
	c-19.8,0-35.9,16-35.9,35.9c0,19.8,16,35.9,35.9,35.9s35.9-16,35.9-35.9C506.9,304.8,490.9,288.8,471.1,288.8z"/>
</svg>
