<?xml version="1.0" encoding="utf-8"?>
<!-- Generator: Adobe Illustrator 18.1.1, SVG Export Plug-In . SVG Version: 6.00 Build 0)  -->
<svg version="1.1" id="圖層_1" xmlns="http://www.w3.org/2000/svg" xmlns:xlink="http://www.w3.org/1999/xlink" x="0px" y="0px"
	 viewBox="-49 141 512 512" enable-background="new -49 141 512 512" xml:space="preserve">
<path fill="#FFFFFF" d="M212,653c-1.7,0-3.4,0-5.1,0c-40.1,0.1-77.2-0.9-113.3-3.1c-33.1-2-63.2-13.4-87.3-33
	c-23.2-18.9-39-44.5-47.1-76c-7-27.4-7.4-54.4-7.7-80.4c-0.3-18.7-0.5-40.8-0.6-63.4c0.1-22.6,0.3-44.8,0.6-63.5
	c0.4-26,0.7-53,7.7-80.4c8-31.5,23.9-57.1,47.1-76c24-19.6,54.2-31,87.3-33c36.1-2.2,73.2-3.2,113.4-3.1
	c40.1-0.1,77.2,0.9,113.3,3.1c33.1,2,63.2,13.4,87.3,33c23.2,18.9,39,44.5,47.1,76c7,27.4,7.4,54.4,7.7,80.4
	c0.3,18.7,0.5,40.8,0.6,63.4v0.1c-0.1,22.5-0.3,44.7-0.6,63.4c-0.4,26-0.7,53-7.7,80.4c-8,31.5-23.9,57.1-47.1,76
	c-24,19.6-54.2,31-87.3,33C285.8,652,250.3,653,212,653z M206.9,613c39.5,0.1,75.7-0.9,110.9-3c25-1.5,46.7-9.6,64.4-24.1
	c16.4-13.4,27.7-31.9,33.6-54.9c5.8-22.8,6.2-47.4,6.5-71.1c0.3-18.6,0.5-40.6,0.6-62.9c-0.1-22.3-0.3-44.3-0.6-62.9
	c-0.3-23.7-0.7-48.2-6.5-71.1c-5.9-23-17.2-41.5-33.6-54.9c-17.8-14.5-39.4-22.6-64.4-24.1c-35.2-2.1-71.5-3.1-110.9-3
	c-39.5-0.1-75.7,0.9-110.9,3c-25,1.5-46.7,9.6-64.4,24.1C15.2,221.5,3.9,240-1.9,263.1c-5.8,22.8-6.2,47.4-6.5,71.1
	C-8.7,352.7-8.9,374.7-9,397c0.1,22.2,0.3,44.2,0.6,62.8c0.3,23.7,0.7,48.2,6.5,71.1c5.9,23,17.2,41.5,33.6,54.9
	c17.8,14.5,39.4,22.6,64.4,24.1C131.3,612.1,167.6,613.1,206.9,613z M206,522c-68.9,0-125-56.1-125-125s56.1-125,125-125
	c68.9,0,125,56.1,125,125S274.9,522,206,522z M206,312c-46.9,0-85,38.1-85,85s38.1,85,85,85c46.9,0,85-38.1,85-85S252.9,312,206,312
	z M345,232c-16.6,0-30,13.4-30,30s13.4,30,30,30c16.6,0,30-13.4,30-30S361.6,232,345,232z"/>
</svg>
